<?xml version="1.0" encoding="UTF-8" standalone="no"?>
<!DOCTYPE svg PUBLIC "-//W3C//DTD SVG 1.1//EN" "http://www.w3.org/Graphics/SVG/1.1/DTD/svg11.dtd">
<svg width="100%" height="100%" viewBox="0 0 512 512" version="1.1" xmlns="http://www.w3.org/2000/svg" xmlns:xlink="http://www.w3.org/1999/xlink" xml:space="preserve" xmlns:serif="http://www.serif.com/" style="fill-rule:evenodd;clip-rule:evenodd;stroke-linejoin:round;stroke-miterlimit:2;">
    <g id="icon-transparent" transform="matrix(1.10011,0,0,1.10011,-25.627,-25.6266)">
        <path id="inner-shape" d="M256,201.62C235.56,201.62 169.77,320.91 179.8,341.05C189.83,361.19 322.28,360.97 332.2,341.05C342.12,321.13 276.47,201.63 256,201.62Z" style="fill:none;stroke:white;stroke-width:34.54px;"/>
        <path id="outer-shape" d="M256,23.3C194.44,23.3 -3.82,382.73 26.41,443.43C56.64,504.13 455.75,503.43 485.65,443.43C515.55,383.43 317.62,23.3 256,23.3ZM255.992,60.493C259.902,63.466 265.64,68.079 269.827,72.372C291.511,94.603 317.247,130.775 342.659,172.023C388.071,245.739 432.179,335.616 448.468,394.865C451.546,406.06 453.113,420.312 453.697,426.642C447.73,429.42 433.505,435.712 421.107,438.743C378.791,449.088 317.455,454.1 256.126,454.151C194.814,454.201 133.468,449.294 91.107,438.944C78.58,435.883 64.166,429.453 58.292,426.698C58.843,420.447 60.377,405.92 63.483,394.569C79.717,335.231 123.845,245.451 169.277,171.848C194.705,130.654 220.46,94.544 242.15,72.353C246.34,68.067 252.079,63.461 255.992,60.493Z" style="fill:white;"/>
    </g>
</svg>
